# xmcd
#
# Track frame offsets: 
#        150
#        17325
#        33232
#        49582
#        63670
#        81137
#        103912
#        122715
#        146152
#        158995
#        187402
#
# Disc length: 2770 seconds
#
# Revision: 0
# Processed by: cddbd v1.5.2PL0 Copyright (c) Steve Scherf et al.
# Submitted via: ExactAudioCopy v0.95b4
#
DISCID=990ad00b
DTITLE=No Problem - Soul-Band Of The Year?
DYEAR=1988
DGENRE=Soul
TTITLE0=In The Midnight Hour
TTITLE1=637-5789
TTITLE2=Hot Girls
TTITLE3=Keep On Running
TTITLE4=Under The Boardwalk
TTITLE5=Your Love
TTITLE6=The Magic Wand
TTITLE7=I Heard It Through The Grapevine
TTITLE8=Mr. Pitiful
TTITLE9=Who's That Lady
TTITLE10=Knock On Wood
EXTD=
EXTT0=
EXTT1=
EXTT2=
EXTT3=
EXTT4=
EXTT5=
EXTT6=
EXTT7=
EXTT8=
EXTT9=
EXTT10=
PLAYORDER=
